<svg width="9" height="8" viewBox="0 0 9 8" fill="none" xmlns="http://www.w3.org/2000/svg">
<g opacity="0.5" clip-path="url(#clip0_51_914)">
<path d="M4.75007 0.333344C2.72424 0.333344 1.0834 1.97418 1.0834 4.00001C1.0834 5.62251 2.13299 6.99291 3.59049 7.47874C3.77382 7.51084 3.84257 7.40084 3.84257 7.30458C3.84257 7.21751 3.83799 6.92874 3.83799 6.62168C2.91674 6.79124 2.6784 6.39708 2.60507 6.19084C2.56382 6.08541 2.38507 5.76001 2.22924 5.67291C2.1009 5.60418 1.91757 5.43458 2.22465 5.43001C2.5134 5.42541 2.71965 5.69584 2.7884 5.80584C3.1184 6.36041 3.64549 6.20458 3.85632 6.10834C3.8884 5.87001 3.98465 5.70958 4.09007 5.61791C3.27424 5.52624 2.42174 5.21001 2.42174 3.80751C2.42174 3.40874 2.56382 3.07876 2.79757 2.82209C2.7609 2.73043 2.63257 2.35459 2.83424 1.85043C2.83424 1.85043 3.14132 1.75418 3.84257 2.22626C4.1359 2.14376 4.44757 2.10251 4.75924 2.10251C5.0709 2.10251 5.38257 2.14376 5.6759 2.22626C6.37717 1.74959 6.68424 1.85043 6.68424 1.85043C6.8859 2.35459 6.75757 2.73043 6.7209 2.82209C6.95467 3.07876 7.09674 3.40418 7.09674 3.80751C7.09674 5.21458 6.23967 5.52624 5.42384 5.61791C5.55674 5.73251 5.67134 5.95251 5.67134 6.29624C5.67134 6.78668 5.66674 7.18084 5.66674 7.30458C5.66674 7.40084 5.7355 7.51541 5.91884 7.47874C7.36717 6.99291 8.41674 5.61791 8.41674 4.00001C8.41674 1.97418 6.7759 0.333344 4.75007 0.333344Z" fill="var(--color-light)"/>
</g>
<defs>
<clipPath id="clip0_51_914">
<rect width="8" height="8" fill="var(--color-light)" transform="translate(0.750061)"/>
</clipPath>
</defs>
</svg>

