<svg width="9" height="8" viewBox="0 0 9 8" fill="none" xmlns="http://www.w3.org/2000/svg">
<g opacity="0.5" clip-path="url(#clip0_47_356)">
<path d="M8.02281 0H1.47734C1.07552 0 0.750061 0.325455 0.750061 0.727275V7.27275C0.750061 7.67455 1.07552 8 1.47734 8H8.02281C8.42461 8 8.75006 7.67455 8.75006 7.27275V0.727275C8.75006 0.325455 8.42461 0 8.02281 0ZM3.27879 6.54545H2.20606V3.09382H3.27879V6.54545ZM2.73152 2.60036C2.3857 2.60036 2.10606 2.32 2.10606 1.97491C2.10606 1.62982 2.38606 1.34982 2.73152 1.34982C3.07624 1.34982 3.35661 1.63018 3.35661 1.97491C3.35661 2.32 3.07624 2.60036 2.73152 2.60036ZM7.29696 6.54545H6.22496V4.86691C6.22496 4.46655 6.21771 3.95163 5.66752 3.95163C5.10934 3.95163 5.02352 4.38764 5.02352 4.83782V6.54545H3.95152V3.09382H4.98061V3.56545H4.99515C5.13843 3.29418 5.48824 3.008 6.01006 3.008C7.09626 3.008 7.29696 3.72291 7.29696 4.65237V6.54545Z" fill="var(--color-light)"/>
</g>
<defs>
<clipPath id="clip0_47_356">
<rect width="8" height="8" fill="var(--color-light)" transform="translate(0.750061)"/>
</clipPath>
</defs>
</svg>

