<svg
  viewBox="0 0 97.102083 97.102076"
  version="1.1"
  xmlns="http://www.w3.org/2000/svg"
>
  <g id="webdev-style-logo" transform="translate(-154.97054,80.581886)">
    <path
      id="logo__web-v"
      d="m 221.90218,-71.15025 v 33.730471 h 2.23438 v -5.283201 c 1.1176,1.998132 2.5742,3.420916 4.36914,4.267577 1.79493,0.84667 3.89429,1.26953 6.29882,1.26953 1.7272,0 3.38679,-0.338288 4.97852,-1.015624 1.59173,-0.677336 2.96377,-1.59267 4.11523,-2.744141 1.18534,-1.185329 2.09872,-2.538499 2.74219,-4.062496 0.67734,-1.557872 1.01563,-3.183624 1.01563,-4.876954 0,-1.693331 -0.33829,-3.302167 -1.01563,-4.826172 -0.64347,-1.557864 -1.55685,-2.9299 -2.74219,-4.115237 -1.15146,-1.151462 -2.5235,-2.064847 -4.11523,-2.742183 -1.59173,-0.677336 -3.25132,-1.017582 -4.97852,-1.017582 -2.47226,0 -4.58854,0.458651 -6.34961,1.373045 -1.7272,0.880536 -3.16689,2.335195 -4.31835,4.367193 V -71.15025 Z m -17.42578,8.380865 c -1.7272,0 -3.38678,0.32333 -4.97852,0.966799 -1.55786,0.643469 -2.91103,1.556854 -4.0625,2.742183 -1.18533,1.185337 -2.11758,2.574281 -2.79492,4.16602 -0.64347,1.557863 -0.96484,3.200531 -0.96484,4.927729 0,1.727206 0.32137,3.369874 0.96484,4.927737 0.67734,1.557864 1.60959,2.92795 2.79492,4.113279 1.18534,1.185337 2.55542,2.117588 4.11328,2.794924 1.55787,0.643469 3.20054,0.964841 4.92774,0.964841 2.16747,0 4.16534,-0.490516 5.99414,-1.472653 1.8288,-1.015995 3.35307,-2.388031 4.57227,-4.115237 l -2.03125,-1.11719 c -1.016,1.354672 -2.25272,2.422243 -3.70899,3.201179 -1.45627,0.778936 -3.0651,1.167964 -4.82617,1.167964 -2.57387,0 -4.80855,-0.847679 -6.70508,-2.541018 -1.9304,-1.69333 -3.16712,-3.944919 -3.70898,-6.755854 h 23.21679 l 0.0508,-0.8125 c 0,-1.659464 -0.37408,-3.369797 -1.11914,-5.130861 -0.7112,-1.761064 -1.60768,-3.200756 -2.69141,-4.31836 -1.15147,-1.185329 -2.5235,-2.098714 -4.11523,-2.742183 -1.55787,-0.643469 -3.20054,-0.966799 -4.92774,-0.966799 z m -36.93164,0.05081 10.05859,25.298823 h 2.99805 l 10.05859,-25.298849 h -2.49023 l -9.04102,22.70898 -9.09375,-22.70898 z m 36.93164,2.236329 c 2.57387,0 4.8105,0.845729 6.70703,2.539059 1.9304,1.693331 3.16516,3.946878 3.70703,6.757813 h -20.82812 c 0.54186,-2.810935 1.77858,-5.064482 3.70898,-6.757813 1.89653,-1.69333 4.13121,-2.539059 6.70508,-2.539059 z m 30.32812,0.253906 c 1.4224,0 2.77752,0.270632 4.06446,0.812501 1.28693,0.541868 2.40329,1.286109 3.35156,2.23437 0.98213,0.982137 1.74524,2.100448 2.28711,3.353519 0.54187,1.253063 0.8125,2.57435 0.8125,3.962888 0,1.38853 -0.28755,2.726742 -0.86328,4.013671 -0.54187,1.28693 -1.28806,2.403291 -2.23633,3.351561 -0.94827,0.94827 -2.06463,1.694461 -3.35156,2.236329 -1.28694,0.541869 -2.64206,0.812501 -4.06446,0.812501 -1.4224,0 -2.79443,-0.270632 -4.11523,-0.812501 -1.28693,-0.541868 -2.4033,-1.288059 -3.35156,-2.236329 -0.94827,-0.94827 -1.71138,-2.064631 -2.28711,-3.351561 -0.54187,-1.286929 -0.8125,-2.625141 -0.8125,-4.013671 0,-1.388538 0.27063,-2.709825 0.8125,-3.962888 0.57573,-1.286937 1.35576,-2.405249 2.33789,-3.353519 0.98213,-0.948261 2.09849,-1.692502 3.35156,-2.23437 1.28693,-0.541869 2.64205,-0.812501 4.06445,-0.812501 z"
      fill="var(--color-light)"
      style="stroke-width:0.862628"></path>
    <path
      d="m 170.68531,-37.419537 h -2.9972 l -10.0584,-25.298401 h 2.4892 l 9.0932,22.7076 9.0424,-22.7076 h 2.4892 z"
      stroke-width="0.0700043"
      fill="var(--color-accent)"
      id="logo__web-pre"></path>
    <path
      id="logo__dev-d"
      d="m 184.92171,-45.249853 v 14.324217 c -1.15146,-2.031999 -2.59116,-3.488607 -4.31836,-4.369143 -1.76106,-0.914395 -3.87734,-1.371087 -6.34961,-1.371087 -1.7272,0 -3.38678,0.338288 -4.97851,1.015624 -1.59174,0.677335 -2.96377,1.59267 -4.11524,2.744141 -1.18533,1.185329 -2.10067,2.557365 -2.74414,4.115228 -0.67733,1.524005 -1.01562,3.132841 -1.01562,4.826172 0,1.693339 0.33829,3.319091 1.01562,4.876955 0.64347,1.523996 1.55881,2.877167 2.74414,4.062504 1.15147,1.151462 2.5235,2.066806 4.11524,2.744141 1.59173,0.677336 3.25131,1.015624 4.97851,1.015624 2.40454,0 4.5039,-0.42286 6.29883,-1.26953 1.79494,-0.846669 3.25154,-2.269445 4.36914,-4.267585 v 5.283209 h 2.23438 v -33.73047 z m 19.6582,8.380855 c -1.7272,0 -3.36986,0.321381 -4.92773,0.96485 -1.59173,0.643469 -2.96181,1.558803 -4.11328,2.744141 -1.08373,1.117604 -1.98216,2.557287 -2.69336,4.318351 -0.74507,1.761064 -1.11719,3.471397 -1.11719,5.130861 l 0.0508,0.812501 h 23.21484 c -0.54187,2.810943 -1.77663,5.062532 -3.70703,6.755862 -1.89654,1.693331 -4.13317,2.541018 -6.70703,2.541018 -1.76107,0 -3.36991,-0.390986 -4.82618,-1.169922 -1.45626,-0.778936 -2.69103,-1.844558 -3.70703,-3.19922 l -2.0332,1.117189 c 1.2192,1.727198 2.74347,3.099234 4.57227,4.115228 1.8288,0.982137 3.82667,1.472662 5.99414,1.472662 1.7272,0 3.36986,-0.321381 4.92773,-0.96485 1.55787,-0.677335 2.9299,-1.609586 4.11523,-2.794915 1.18534,-1.185337 2.11759,-2.555415 2.79493,-4.113287 0.64346,-1.557864 0.96484,-3.200532 0.96484,-4.927729 0,-1.727206 -0.32138,-3.369875 -0.96484,-4.927738 -0.67734,-1.59173 -1.60959,-2.980674 -2.79493,-4.166011 -1.15146,-1.185338 -2.50658,-2.100672 -4.06445,-2.744141 -1.59173,-0.643469 -3.25131,-0.96485 -4.97851,-0.96485 z m 13.81836,0.05078 10.0586,25.298832 h 2.99609 l 10.0586,-25.298832 h -2.48829 l -9.09375,22.707031 -9.04296,-22.707031 z m -13.81836,2.236329 c 2.57387,0 4.8105,0.845729 6.70704,2.53906 1.9304,1.693339 3.16516,3.944928 3.70703,6.755863 h -20.82813 c 0.54187,-2.810935 1.77859,-5.062524 3.70899,-6.755863 1.89653,-1.693331 4.13121,-2.53906 6.70507,-2.53906 z m -30.32617,0.253906 c 1.4224,0 2.77557,0.270641 4.0625,0.812501 1.25307,0.541869 2.37139,1.28611 3.35352,2.234371 0.98213,0.94827 1.7602,2.06659 2.33594,3.353519 0.54186,1.253062 0.81445,2.57435 0.81445,3.962888 0,1.388538 -0.27259,2.724792 -0.81445,4.011721 -0.57574,1.28693 -1.33689,2.405249 -2.28516,3.353519 -0.94827,0.948262 -2.06658,1.692503 -3.35352,2.234371 -1.3208,0.541869 -2.69088,0.814451 -4.11328,0.814451 -1.4224,0 -2.77752,-0.272582 -4.06445,-0.814451 -1.28693,-0.541868 -2.40525,-1.286109 -3.35352,-2.234371 -0.94826,-0.94827 -1.6925,-2.066589 -2.23437,-3.353519 -0.57573,-1.286929 -0.86328,-2.623183 -0.86328,-4.011721 0,-1.388538 0.27063,-2.709826 0.8125,-3.962888 0.54187,-1.253062 1.30302,-2.371382 2.28515,-3.353519 0.94827,-0.948261 2.06659,-1.692502 3.35352,-2.234371 1.28693,-0.54186 2.64205,-0.812501 4.06445,-0.812501 z"
      fill="var(--color-light)"
      style="stroke-width:0.862628"></path>
    <path
      id="logo__style-text"
      fill="var(--color-accent)"
      style="baseline-shift:baseline;display:inline;overflow:visible;vector-effect:none;fill-opacity:1;stroke:none;stroke-width:0.33565;stroke-opacity:1;enable-background:accumulate;stop-color:#000000"
      d="m 239.49984,-20.236184 c -0.42442,0.01856 -0.80525,0.188827 -1.11914,0.396487 -0.41854,0.276874 -0.76816,0.64524 -1.0879,1.080075 -0.63946,0.869669 -1.13162,1.994436 -1.54687,3.371095 -0.41525,1.376652 -0.74667,3.001572 -0.95898,4.558595 -0.19713,1.4456355 -0.27448,2.8256677 -0.19727,4.08789 -0.70132,0.7906474 -1.36821,1.4411104 -2.08203,2.0175795 -0.28464,0.2298767 -0.57853,0.4364492 -0.875,0.6640602 0.39962,-2.1314219 0.8605,-4.5784287 0.94531,-5.4902323 0.0132,-0.1417115 0.0298,-0.2307561 0.008,-0.4355497 -0.011,-0.1023967 0.0674,-0.2523217 -0.2793,-0.6210937 -0.17332,-0.184386 -0.58533,-0.353386 -0.88671,-0.308593 -0.30139,0.04479 -0.44197,0.172198 -0.5293,0.250002 -0.34932,0.311215 -0.27169,0.356632 -0.31836,0.458985 -0.0467,0.102353 -0.0884,0.20577 -0.13281,0.3222641 -0.17761,0.4659797 -0.40829,1.1512195 -0.65039,1.7656236 -0.48422,1.2288252 -1.03007,2.2299621 -1.59961,3.0312496 -0.41357,0.5818427 -0.81845,0.9446637 -1.05469,1.1464868 -0.046,-0.1882091 -0.0773,-0.3977353 -0.0293,-0.9531255 0.0573,-0.662956 0.16368,-1.5336693 0.3457,-2.5058598 0.091,-0.4860851 0.20447,-1.0083567 0.29297,-1.4218743 0.0443,-0.2067571 0.083,-0.3859808 0.11133,-0.5273432 0.0142,-0.070685 0.0251,-0.1302692 0.0351,-0.1914079 0.005,-0.030578 0.009,-0.060968 0.0137,-0.105468 0.005,-0.0445 0.0425,-0.036186 -0.01,-0.3144538 -0.013,-0.069527 -0.0289,-0.1661036 -0.125,-0.3281246 -0.024,-0.04051 -0.0917,-0.130749 -0.0918,-0.13086 -9e-5,-1.11e-4 -0.15029,-0.146407 -0.15039,-0.146485 -2e-4,-1.57e-4 -0.47242,-0.203091 -0.47266,-0.203125 -2.3e-4,-3.4e-5 -0.46066,0.04093 -0.46093,0.04102 -2.7e-4,8.8e-5 -0.20117,0.08824 -0.26172,0.13086 -0.1211,0.08525 -0.17004,0.149254 -0.20703,0.195312 -0.14797,0.184231 -0.12854,0.203233 -0.14649,0.244142 -0.0359,0.08181 -0.0499,0.128822 -0.0703,0.1894507 -0.0408,0.1212603 -0.0874,0.2697989 -0.13867,0.4492207 -0.10261,0.3588435 -0.22379,0.8240009 -0.32032,1.2675793 -0.19304,0.8871434 -0.26022,1.5183502 -0.46874,2.1191405 -0.20853,0.6008204 -0.58424,1.2619672 -1.07618,1.7539061 -0.49193,0.4919389 -1.08679,0.8074701 -1.64843,0.8320297 -0.56159,0.02457 -1.18834,-0.2156519 -1.58789,-0.7851562 -0.2553,-0.3638917 -0.42716,-1.0171105 -0.54883,-1.7519526 0.60666,-0.9075946 1.22603,-1.9262658 1.79492,-2.910157 0.99604,-0.042775 2.03468,-0.1076028 3.06836,-0.171873 l -0.12305,-1.9960942 c -0.60318,0.0375 -1.20587,0.07453 -1.79492,0.107421 0.0144,-0.02665 0.0288,-0.05371 0.043,-0.08008 0.82905,-1.54091 1.36839,-2.629074 1.5957,-3.750001 0.22732,-1.120961 0.16048,-2.165467 -0.3789,-3.003904 -0.26974,-0.419287 -0.71467,-0.788748 -1.26758,-0.894531 -0.55291,-0.105787 -1.11772,0.06507 -1.57813,0.373045 -0.92089,0.616008 -1.60763,1.666509 -2.13281,2.871094 -0.52518,1.204574 -0.7739,2.473228 -0.99219,3.822266 -0.039,0.240805 -0.0786,0.487616 -0.11523,0.738283 -0.65635,-0.02695 -1.28894,-0.06542 -1.92969,-0.105472 l -0.12305,1.9960947 c 0.59549,0.03722 1.19722,0.074061 1.82813,0.1015644 -0.0397,0.5446594 -0.0587,1.0963172 -0.0469,1.6464847 0.005,0.2410102 0.0616,0.4680305 0.0781,0.7070302 -0.89969,1.2594465 -1.72716,2.1664033 -2.45703,2.5605472 -0.14509,0.078354 -0.30712,0.087655 -0.45899,0.1425774 -3.3e-4,-0.073048 0.0185,-0.1404628 0.0117,-0.2148429 -0.0932,-1.0192519 -0.66919,-1.7259901 -1.14844,-2.3925778 -0.47925,-0.6665944 -0.78659,-1.0994925 -0.78125,-1.6992187 0.003,-0.2998195 0.10829,-0.7977296 0.20703,-1.1601578 0.0494,-0.1812108 0.0918,-0.3081537 0.12891,-0.4687489 0.009,-0.040147 0.0196,-0.080304 0.0293,-0.1699225 0.005,-0.04481 0.0117,-0.09869 0,-0.21875 -0.0118,-0.120059 0.0109,-0.396165 -0.38867,-0.703123 -0.19979,-0.153483 -0.50358,-0.221919 -0.71094,-0.201172 -0.20736,0.02074 -0.32937,0.08587 -0.41211,0.134763 -0.16546,0.09779 -0.20659,0.158941 -0.24609,0.203126 -0.079,0.08837 -0.10045,0.126865 -0.12695,0.167969 -0.21202,0.328833 -0.43567,0.7891839 -0.80664,1.4785152 -0.37098,0.689328 -0.82605,1.5155174 -1.25586,2.2167979 -0.85964,1.4025576 -1.6663,2.3896677 -2.51563,3.4277328 l 1.54688,1.2656259 c 0.84932,-1.0380651 1.74041,-2.1254876 2.67382,-3.6484363 0.11577,-0.188877 0.21181,-0.3780695 0.32618,-0.5742201 0.22457,0.4355597 0.48963,0.8128506 0.70703,1.1152344 0.46447,0.6460426 0.765,1.2092702 0.7832,1.4082033 0.009,0.1016886 -0.0223,0.2186022 -0.084,0.3320318 -0.0163,-6.713e-4 -0.0345,0.00269 -0.0508,0.00201 -0.40142,-0.019871 -0.74194,-0.055634 -1.04688,-0.078126 -0.30494,-0.022488 -0.51697,-0.173474 -1.10937,0.1425775 -0.29912,0.1595748 -0.5819,0.575066 -0.60157,0.9394545 -0.0197,0.3643918 0.11433,0.6165859 0.24805,0.7988271 0.26744,0.3644825 0.61431,0.5479925 1.02734,0.6445321 0.79362,0.18548365 1.59422,0.015104 2.3418,-0.4804697 0.8122,-0.028899 1.71854,-0.1409764 2.66211,-0.6503892 0.74508,-0.4023606 1.4001,-1.0110185 2.0293,-1.7265641 0.12939,0.2992254 0.27751,0.5884551 0.46484,0.8554681 0.81023,1.1548714 2.10683,1.6874944 3.3125,1.6347671 1.20232,-0.052576 2.21734,-0.6609588 2.96875,-1.4101567 0.13616,0.3230632 0.3347,0.659633 0.71094,0.919923 0.39552,0.2736286 1.00922,0.3667883 1.51172,0.1992184 0.86717,-0.2891727 1.41954,-0.9447947 1.98047,-1.7070326 -0.0325,0.1720341 -0.0468,0.2816171 -0.0781,0.4453137 -0.0769,0.401894 -0.12152,0.4921873 -0.1914,0.8457007 -0.0103,0.00769 -0.0229,0.017722 -0.0332,0.025375 -1.03464,0.7705688 -1.92108,1.45982296 -2.80273,2.30078091 -0.88165,0.84095795 -1.77068,1.81029199 -2.28125,2.89062559 -0.51056,1.0803066 -0.55159,2.1761338 -0.15235,3.0488275 0.3992,0.8725661 1.30604,1.485235 2.28321,1.4082033 0.97704,-0.077022 1.75188,-0.7023177 2.38476,-1.5410167 0.63289,-0.838699 1.12453,-1.9268935 1.54102,-3.25781 0.28978,-0.9260453 0.56352,-2.34718788 0.8457,-3.7187516 0.87845,-0.6491104 1.81327,-1.326063 2.73242,-2.06836 0.42447,-0.3427994 0.85155,-0.7397695 1.2793,-1.1445299 0.1603,0.4632609 0.33782,0.9111893 0.60742,1.2890609 0.64682,0.9065708 1.64378,1.4256739 2.65039,1.4062531 h 0.002 c 1.0065,-0.019434 1.77599,-0.4753477 2.81249,-1.0000024 0.13879,-0.070248 0.32368,-0.1757967 0.47461,-0.2519524 0.51903,0.578832 1.14992,1.0287811 1.87305,1.2128919 0.92169,0.2346631 1.83788,0.1435575 2.61133,-0.1015644 0.77343,-0.2451152 1.41965,-0.6962155 1.91015,-1.2675759 0.49051,-0.5713638 0.83414,-1.214644 1.16016,-1.8066435 l -1.75195,-0.9648431 c -0.32602,0.5919962 -0.63561,1.1307516 -0.92578,1.4687512 -0.29018,0.3380031 -0.55132,0.5231007 -0.9961,0.6640637 -0.44475,0.1409495 -1.05606,0.1873162 -1.51562,0.070312 -0.19668,-0.050076 -0.37113,-0.1416007 -0.53711,-0.2460953 0.43017,-0.2307091 0.85932,-0.4307263 1.23633,-0.6582031 1.0786,-0.6508088 1.87335,-1.2686064 2.32031,-2.15625 0.44699,-0.8876905 0.47306,-1.9082582 0.0195,-2.7597656 -0.45364,-0.851642 -1.4069,-1.410761 -2.44922,-1.365233 -1.04243,0.04552 -2.03446,0.572776 -2.78711,1.4257809 -0.75265,0.8530045 -1.15072,1.9426758 -1.25,3.019532 -0.054,0.5855618 0.002,1.1580869 0.13281,1.7050758 -0.14136,0.071463 -0.29606,0.1618706 -0.42773,0.2285173 -1.04833,0.5306393 -1.61743,0.776795 -1.94922,0.7832026 -0.33168,0.00641 -0.67217,-0.1260937 -0.98633,-0.5664062 -0.2622,-0.3674933 -0.47821,-1.082371 -0.60547,-1.941407 0.20889,-0.2586184 0.39794,-0.4313541 0.61719,-0.7304687 1.29818,-1.7710545 2.80806,-4.2774207 3.64844,-6.2675777 0.84039,-1.990191 0.96185,-3.459381 0.78711,-4.580077 -0.0874,-0.560371 -0.23895,-1.063668 -0.50196,-1.505861 -0.263,-0.442195 -0.68289,-0.865729 -1.2832,-0.992188 -0.1501,-0.03162 -0.29798,-0.04134 -0.43945,-0.03516 z m -0.002,2.041018 c 0.001,0.0017 0.002,0.0034 0.002,0.0039 -0.001,-1.25e-4 -0.005,6e-6 -0.006,0 v -0.002 h 0.002 z m 0.004,0.0098 h 0.002 c 0.0802,0.134763 0.18571,0.416253 0.24414,0.791016 0.11688,0.749581 0.0832,1.752225 -0.65234,3.494141 -0.54067,1.280391 -1.48257,2.879116 -2.42188,4.3300782 0.0327,-0.3312329 0.0469,-0.6448742 0.0937,-0.9882812 0.19948,-1.462901 0.52048,-3.011886 0.89453,-4.251956 0.37405,-1.240062 0.80919,-2.174791 1.24219,-2.763669 0.2165,-0.294435 0.43774,-0.503502 0.58008,-0.597658 0.009,-0.0057 0.0149,-0.01084 0.0176,-0.01366 z m -16.85351,1.396485 c 0.0957,0.163979 0.24294,0.781753 0.0957,1.507811 -0.15021,0.74074 -0.58876,1.694352 -1.39843,3.199219 -0.1867,0.346988 -0.42001,0.731684 -0.66211,1.128906 -0.14311,0.0034 -0.28499,0.0042 -0.42383,0.0059 0.0207,-0.151942 0.0424,-0.301105 0.0664,-0.449217 0.21067,-1.301973 0.44354,-2.401483 0.85351,-3.3418 0.40996,-0.940303 1.11265,-1.810755 1.41016,-2.009765 0.0342,-0.02286 0.0511,-0.03487 0.0586,-0.04101 z m 21.98242,8.00781 c 0.33045,-0.014433 0.49376,0.1115969 0.59766,0.3066432 0.10395,0.1951738 0.12971,0.5828195 -0.041,0.9218731 -0.17074,0.3390939 -0.61179,0.7658025 -1.5664,1.3417983 -0.30595,0.1846008 -0.71968,0.3793988 -1.0918,0.5800772 -0.0116,-0.1735411 -0.0461,-0.3373317 -0.0293,-0.5195293 0.0637,-0.6905498 0.35219,-1.4192059 0.75781,-1.8789089 0.40562,-0.4597031 1.04272,-0.7375274 1.37305,-0.7519536 z m -39.97063,3.2812484 c -0.60978,-0.00473 -1.10134,0.2567421 -1.48047,0.6093761 -0.37912,0.3526307 -0.68326,0.8349465 -0.70703,1.4589839 -0.0238,0.6239702 0.24687,1.1350881 0.60938,1.5117177 0.3625,0.376633 0.85671,0.6632682 1.47656,0.6679706 0.61978,0.0047 1.11885,-0.2779854 1.48438,-0.6425786 0.36552,-0.3645966 0.63726,-0.8451603 0.66015,-1.4433593 0.0458,-1.196539 -0.82349,-2.1526417 -2.04297,-2.1621104 z m -0.0508,2.0273435 c 0.004,0.0289 0.0499,0.072282 0.0762,0.078126 h 0.002 c -0.0115,0.023328 -0.0305,0.055936 -0.0586,0.083983 -0.0201,0.020072 -0.0393,0.034488 -0.0547,0.04297 -0.0147,-0.00812 -0.0334,-0.020978 -0.0508,-0.039063 -0.0167,-0.017353 -0.0278,-0.034783 -0.0352,-0.048827 0.0107,-0.018763 0.0278,-0.04532 0.0547,-0.070315 0.022,-0.020475 0.0454,-0.036035 0.0664,-0.046874 z m 23.91992,4.38476535 c -0.078,0.29311985 -0.17117,0.85123215 -0.25195,1.10937395 -0.37281,1.1913734 -0.80814,2.0926711 -1.23047,2.6523442 -0.42233,0.5596764 -0.83092,0.7411356 -0.94336,0.7500001 -0.11232,0.00886 -0.20147,-0.011949 -0.30859,-0.2460919 -0.10706,-0.2340254 -0.16384,-0.717093 0.14062,-1.3613298 0.30447,-0.6442099 1.06218,-1.544014 1.85352,-2.2988274 0.22344,-0.2131311 0.5095,-0.4063279 0.74023,-0.60546915 z"
    ></path>
  </g>
</svg>
