<svg width="9" height="8" viewBox="0 0 9 8" fill="none" xmlns="http://www.w3.org/2000/svg">
<g opacity="0.5" clip-path="url(#clip0_47_215)">
<path d="M1.62505 1H7.87505C8.35805 1 8.75005 1.392 8.75005 1.875V6.125C8.75005 6.35706 8.65786 6.57962 8.49376 6.74372C8.32967 6.90781 8.10711 7 7.87505 7H1.62505C1.39298 7 1.17042 6.90781 1.00633 6.74372C0.842233 6.57962 0.750046 6.35706 0.750046 6.125V1.875C0.750046 1.392 1.14205 1 1.62505 1ZM1.50005 6.1255C1.50005 6.1945 1.55605 6.2505 1.62505 6.2505H7.87505C7.9082 6.2505 7.93999 6.23733 7.96343 6.21389C7.98688 6.19045 8.00005 6.15865 8.00005 6.1255V2.9045L4.94005 4.6985C4.88245 4.73235 4.81685 4.7502 4.75005 4.7502C4.68324 4.7502 4.61764 4.73235 4.56005 4.6985L1.50005 2.9045V6.1255ZM8.00005 2.035V1.875C8.00005 1.84185 7.98688 1.81005 7.96343 1.78661C7.93999 1.76317 7.9082 1.75 7.87505 1.75H1.62505C1.59189 1.75 1.5601 1.76317 1.53666 1.78661C1.51322 1.81005 1.50005 1.84185 1.50005 1.875V2.035L4.75005 3.94L8.00005 2.035Z" fill="var(--color-light)"/>
</g>
<defs>
<clipPath id="clip0_47_215">
<rect width="8" height="8" fill="var(--color-light)" transform="translate(0.750046)"/>
</clipPath>
</defs>
</svg>

