<svg width="9" height="8" viewBox="0 0 9 8" fill="none" xmlns="http://www.w3.org/2000/svg">
<g opacity="0.5" clip-path="url(#clip0_47_184)">
<path d="M6.79799 5.78022L5.03049 7.54822C4.96084 7.61792 4.87814 7.67321 4.78712 7.71093C4.69609 7.74865 4.59853 7.76806 4.49999 7.76806C4.40146 7.76806 4.3039 7.74865 4.21287 7.71093C4.12184 7.67321 4.03914 7.61792 3.96949 7.54822L2.20199 5.78022C1.90018 5.47845 1.66077 5.12018 1.49742 4.72587C1.33407 4.33157 1.24998 3.90895 1.24995 3.48215C1.24993 3.05535 1.33397 2.63272 1.49728 2.2384C1.66059 1.84408 1.89997 1.48578 2.20174 1.18397C2.50352 0.882163 2.86179 0.642747 3.25609 0.479396C3.6504 0.316045 4.07302 0.231957 4.49982 0.231934C4.92662 0.23191 5.34925 0.315952 5.74357 0.47926C6.13789 0.642569 6.49618 0.881946 6.79799 1.18372C7.09983 1.48552 7.33926 1.84382 7.50262 2.23815C7.66597 2.63249 7.75005 3.05514 7.75005 3.48197C7.75005 3.90881 7.66597 4.33146 7.50262 4.72579C7.33926 5.12013 7.09983 5.47843 6.79799 5.78022ZM6.26799 1.71422C5.79909 1.24532 5.16312 0.981394 4.49999 0.981394C3.83687 0.981394 3.2009 1.24482 2.73199 1.71372C2.26309 2.18263 1.99966 2.81859 1.99966 3.48172C1.99966 4.14485 2.26309 4.78082 2.73199 5.24972L4.49999 7.01722L6.26799 5.25022C6.50021 5.01807 6.68442 4.74244 6.8101 4.43908C6.93577 4.13573 7.00046 3.81058 7.00046 3.48222C7.00046 3.15386 6.93577 2.82872 6.8101 2.52536C6.68442 2.22201 6.50021 1.94638 6.26799 1.71422ZM4.49999 4.48222C4.36682 4.48523 4.2344 4.46161 4.11048 4.41274C3.98657 4.36386 3.87367 4.29073 3.77841 4.19762C3.68315 4.10452 3.60745 3.99332 3.55576 3.87055C3.50406 3.74779 3.47742 3.61593 3.47739 3.48273C3.47735 3.34953 3.50393 3.21766 3.55556 3.09487C3.60719 2.97208 3.68284 2.86084 3.77805 2.76769C3.87326 2.67453 3.98613 2.60134 4.11002 2.5524C4.23391 2.50347 4.36632 2.47978 4.49949 2.48272C4.76077 2.4885 5.00941 2.59634 5.19218 2.78314C5.37495 2.96995 5.47732 3.22088 5.47739 3.48223C5.47745 3.74357 5.3752 3.99456 5.19253 4.18146C5.00985 4.36836 4.76127 4.47631 4.49999 4.48222Z" fill="var(--color-light)"/>
</g>
<defs>
<clipPath id="clip0_47_184">
<rect width="8.5001" height="7.53613" fill="var(--color-light)" transform="translate(0.249954 0.231934)"/>
</clipPath>
</defs>
</svg>

