<svg width="9" height="8" viewBox="0 0 9 8" fill="none" xmlns="http://www.w3.org/2000/svg">
<g opacity="0.5" clip-path="url(#clip0_47_254)">
<path d="M4.63756 1.6375L5.26256 1.0125C5.42507 0.849987 5.618 0.721076 5.83033 0.633126C6.04266 0.545176 6.27023 0.499908 6.50006 0.499908C6.72988 0.499908 6.95746 0.545176 7.16979 0.633126C7.38212 0.721076 7.57505 0.849987 7.73756 1.0125C7.90007 1.17501 8.02898 1.36794 8.11693 1.58027C8.20488 1.7926 8.25015 2.02017 8.25015 2.25C8.25015 2.47982 8.20488 2.7074 8.11693 2.91973C8.02898 3.13206 7.90007 3.32499 7.73756 3.4875L6.48756 4.7375C6.32505 4.90002 6.13213 5.02894 5.9198 5.1169C5.70746 5.20485 5.47989 5.25012 5.25006 5.25012C5.02023 5.25012 4.79265 5.20485 4.58032 5.1169C4.36799 5.02894 4.17506 4.90002 4.01256 4.7375C3.94635 4.66637 3.9103 4.57234 3.91198 4.47518C3.91366 4.37802 3.95294 4.2853 4.02156 4.2165C4.09036 4.14788 4.18308 4.1086 4.28024 4.10692C4.3774 4.10524 4.47143 4.14129 4.54256 4.2075C4.63536 4.30059 4.74563 4.37446 4.86704 4.42486C4.98845 4.47526 5.11861 4.5012 5.25006 4.5012C5.38151 4.5012 5.51167 4.47526 5.63308 4.42486C5.75449 4.37446 5.86475 4.30059 5.95756 4.2075L7.20756 2.9575C7.38607 2.76802 7.48375 2.51646 7.47987 2.25617C7.47599 1.99588 7.37087 1.74734 7.1868 1.56326C7.00272 1.37919 6.75418 1.27406 6.49389 1.27019C6.2336 1.26631 5.98203 1.36399 5.79256 1.5425L5.16756 2.1675C5.09643 2.2337 5.0024 2.26975 4.90524 2.26808C4.80808 2.2664 4.71536 2.22712 4.64656 2.1585C4.57794 2.0897 4.53866 1.99697 4.53698 1.89981C4.5353 1.80265 4.57135 1.70863 4.63756 1.6375ZM2.29256 6.4575C2.38536 6.55059 2.49563 6.62446 2.61704 6.67486C2.73845 6.72526 2.86861 6.7512 3.00006 6.7512C3.13151 6.7512 3.26167 6.72526 3.38308 6.67486C3.50449 6.62446 3.61475 6.55059 3.70756 6.4575L4.33256 5.8325C4.40369 5.76629 4.49772 5.73024 4.59487 5.73192C4.69203 5.7336 4.78476 5.77288 4.85356 5.8415C4.92218 5.9103 4.96146 6.00302 4.96314 6.10018C4.96481 6.19734 4.92876 6.29137 4.86256 6.3625L4.23756 6.9875C4.07505 7.15001 3.88212 7.27892 3.66979 7.36687C3.45746 7.45482 3.22988 7.50009 3.00006 7.50009C2.53591 7.50009 2.09076 7.3157 1.76256 6.9875C1.43435 6.65929 1.24997 6.21415 1.24997 5.75C1.24997 5.28585 1.43435 4.8407 1.76256 4.5125L3.01256 3.2625C3.17506 3.09998 3.36799 2.97106 3.58032 2.8831C3.79265 2.79514 4.02023 2.74987 4.25006 2.74987C4.47989 2.74987 4.70746 2.79514 4.9198 2.8831C5.13213 2.97106 5.32505 3.09998 5.48756 3.2625C5.55376 3.33363 5.58981 3.42765 5.58814 3.52481C5.58646 3.62197 5.54718 3.7147 5.47856 3.7835C5.40976 3.85212 5.31703 3.8914 5.21987 3.89308C5.12272 3.89475 5.02869 3.8587 4.95756 3.7925C4.86475 3.6994 4.75449 3.62554 4.63308 3.57514C4.51167 3.52474 4.38151 3.4988 4.25006 3.4988C4.11861 3.4988 3.98845 3.52474 3.86704 3.57514C3.74563 3.62554 3.63536 3.6994 3.54256 3.7925L2.29256 5.0425C2.19946 5.1353 2.1256 5.24557 2.0752 5.36698C2.0248 5.48838 1.99886 5.61855 1.99886 5.75C1.99886 5.88145 2.0248 6.01161 2.0752 6.13302C2.1256 6.25442 2.19946 6.36469 2.29256 6.4575Z" fill="var(--color-light)"/>
</g>
<defs>
<clipPath id="clip0_47_254">
<rect width="8" height="8" fill="var(--color-light)" transform="translate(0.750061)"/>
</clipPath>
</defs>
</svg>

